<?xml version="1.0" encoding="utf-8" ?><svg xmlns="http://www.w3.org/2000/svg" xmlns:xlink="http://www.w3.org/1999/xlink" width="32" height="29"><g transform="translate(16 14.5) scale(1.2) translate(-16 -14.5)"><path d="m21.36 22.01q-1.58 -1.63 -3.50 -2.54q-1.92 -0.90 -4.17 -1.14l-0.99 -1.87q0.41 0.14 0.77 0.20q0.35 0.06 0.70 0.06q0.86 0 1.61 -0.18q0.74 -0.17 1.41 -0.50q1.70 -0.84 1.70 -2.42q-0.09 -1.18 -1.69 -1.02q0.16 1.18 -1.11 2.21q-0.52 0.37 -1.05 0.61q-0.53 0.23 -0.98 0.23q-0.28 9.53e-07 -0.56 -0.09q-0.27 -0.09 -0.49 -0.27q-0.21 -0.18 -0.35 -0.42q-0.13 -0.24 -0.13 -0.51l0 -4.40l-1.35 0l-0.98 -1.00l9.64 0l0.97 1.00l-7.34 0q0.71 1.58 2.42 1.58q0.34 0 0.67 -0.07q0.33 -0.07 0.67 -0.07q1.35 0.05 2.05 0.95q0.62 0.86 0.62 1.99q0 1.18 -1.09 2.10q-0.34 0.30 -0.86 0.63q-0.52 0.33 -1.27 0.71q0.88 0.46 1.51 0.83q0.62 0.36 0.98 0.65q0.41 0.32 0.94 0.83q0.53 0.51 1.12 1.19l0.12 0.72Zm-5.52 -9.41q-1.45 -0.32 -2.34 -1.53l0 3.06q0 0.59 0.35 0.59q0.32 0 0.67 -0.20q0.35 -0.20 0.65 -0.51q0.30 -0.34 0.49 -0.70q0.18 -0.35 0.15 -0.70Z"/></g></svg>