<?xml version="1.0" encoding="utf-8"?>
<svg xmlns="http://www.w3.org/2000/svg" viewBox="0 0 32 29"><path d="M16.01 12.54 Q15.44 12.54 15.16 12.19 Q14.89 11.84 14.89 11.44 Q14.89 11.03 15.16 10.69 Q15.44 10.34 16.01 10.34 Q16.58 10.34 16.86 10.69 Q17.13 11.03 17.13 11.44 Q17.13 11.84 16.86 12.19 Q16.58 12.54 16.01 12.54 Z M16.03 15.35 Q13.96 15.35 12.84 14.11 Q11.72 12.87 11.49 10.95 L13.03 10.74 Q13.28 12.30 13.93 13.07 Q14.57 13.85 15.97 13.85 Q17.28 13.85 18.01 13.09 Q18.74 12.32 18.97 10.72 L20.51 10.93 Q20.30 12.87 19.20 14.11 Q18.10 15.35 16.03 15.35 Z M15.19 17.10 Q16.56 18.10 17.86 19.13 Q19.16 20.17 20.32 21.29 L19.48 22.41 Q18.13 21.31 16.82 20.36 Q15.52 19.41 14.09 18.46 L15.19 17.10 Z"/></svg>