<?xml version="1.0" encoding="utf-8"?>
<!-- Generator: Adobe Illustrator 26.3.0, SVG Export Plug-In . SVG Version: 6.00 Build 0)  -->
<svg version="1.1" id="Layer_1" xmlns="http://www.w3.org/2000/svg" xmlns:xlink="http://www.w3.org/1999/xlink" x="0px" y="0px"
	 viewBox="0 0 32 29" style="enable-background:new 0 0 32 29;" xml:space="preserve">
<g transform="translate(16 14.5) scale(1.2) translate(-16 -14.5)">
	<path d="M19,17.7c0,0.6-0.2,1.2-0.7,1.7c-0.2,0.3-0.5,0.4-0.7,0.6s-0.5,0.2-0.9,0.2c-0.7,0-1.2-0.2-1.7-0.7c-0.5-0.5-0.7-1-0.7-1.6
		c0-0.6,0.2-1.2,0.7-1.7c0.3-0.2,0.5-0.4,0.8-0.6c0.3-0.1,0.6-0.2,0.9-0.2c0.6,0,1.1,0.2,1.5,0.7C18.8,16.5,19,17.1,19,17.7L19,17.7
		z M18,17.6c0-0.3-0.1-0.6-0.2-0.8c-0.2-0.2-0.4-0.4-0.7-0.4c-0.4,0-0.8,0.2-1,0.6c-0.2,0.4-0.4,0.8-0.4,1.2c0,0.8,0.3,1.1,0.8,1.1
		c0.2,0,0.4,0,0.6-0.1c0.2-0.1,0.4-0.2,0.5-0.4c0.1-0.2,0.3-0.3,0.3-0.5C17.9,18.1,18,17.9,18,17.6L18,17.6z M19,11.7
		c0,0.6-0.2,1.2-0.7,1.7c-0.2,0.3-0.5,0.5-0.7,0.6c-0.3,0.1-0.5,0.2-0.9,0.2c-0.7,0-1.2-0.2-1.7-0.7c-0.5-0.5-0.7-1-0.7-1.6
		c0-0.6,0.2-1.2,0.7-1.7c0.5-0.5,1.1-0.8,1.7-0.8c0.6,0,1.1,0.2,1.5,0.7C18.8,10.5,19,11.1,19,11.7L19,11.7z M18,11.6
		c0-0.3-0.1-0.6-0.2-0.8c-0.2-0.2-0.4-0.4-0.7-0.4c-0.4,0-0.8,0.2-1,0.6c-0.2,0.4-0.4,0.8-0.4,1.2c0,0.8,0.3,1.1,0.8,1.1
		c0.2,0,0.4,0,0.6-0.1c0.2-0.1,0.4-0.2,0.5-0.4c0.1-0.2,0.3-0.3,0.3-0.5C17.9,12.1,18,11.8,18,11.6L18,11.6z"/>
</g>
</svg>
