<?xml version="1.0" encoding="utf-8" ?><svg xmlns="http://www.w3.org/2000/svg" xmlns:xlink="http://www.w3.org/1999/xlink" width="32" height="29"><path d="m19.72 16.09q-0.10 1.72 -1.24 2.84q-1.09 1.09 -2.41 1.09q-1.56 0 -2.12 -0.82q-0.25 -0.36 -0.32 -0.84q-0.07 -0.48 -0.07 -1.17l0 -3.76l-0.91 0l-0.72 -0.95l1.71 0l0 -2.01q0 -0.70 -0.62 -0.70q-0.14 0 -0.26 0.06q-0.11 0.06 -0.26 0.11l-0.36 -1.00q0.57 -0.23 1.02 -0.23q0.81 0 1.17 0.53q0.36 0.54 0.36 1.78l0 1.45l0.98 0l0.77 0.95l-1.76 0l0 4.66q0.05 0.89 1.04 0.89q0.93 0 1.67 -0.79q0.73 -0.79 0.73 -1.78q-0.25 0.05 -0.44 0.05q-0.52 0 -0.82 -0.30q-0.30 -0.30 -0.30 -0.89q0 -0.70 0.37 -1.05q0.37 -0.35 0.97 -0.35q1.81 0 1.81 2.23Z"/></svg>