<?xml version="1.0" encoding="utf-8"?>
<!-- Generator: Adobe Illustrator 26.3.0, SVG Export Plug-In . SVG Version: 6.00 Build 0)  -->
<svg version="1.1" id="Layer_1" xmlns="http://www.w3.org/2000/svg" xmlns:xlink="http://www.w3.org/1999/xlink" x="0px" y="0px"
	 viewBox="0 0 33 30" style="enable-background:new 0 0 33 30;" xml:space="preserve">
<path d="M19.6,8.8c-1,0.2-1.8,0.6-2.5,1.1c-0.7,0.5-1.3,1.1-1.8,1.8C14.4,13,14,14.7,14,16.7c0,0.9,0.2,1.7,0.7,2.5
	c0.7,0.9,1.3,1.4,2,1.5h0.1c0.1,0,0.2,0,0.3-0.1c-0.5-0.4-0.8-0.8-0.8-1.4c0-0.2,0-0.4,0.1-0.5c0.1-0.2,0.2-0.3,0.4-0.4
	c0.2-0.1,0.3-0.2,0.5-0.3c0.2-0.1,0.4-0.1,0.6-0.1c0.4,0,0.8,0.2,1.1,0.5c0.3,0.3,0.5,0.8,0.5,1.3c0,0.3-0.1,0.6-0.2,0.8
	c-0.1,0.3-0.3,0.5-0.5,0.7c-0.2,0.2-0.5,0.3-0.7,0.4c-0.3,0.1-0.6,0.2-0.9,0.2c-0.7,0-1.4-0.2-1.9-0.5c-0.5-0.4-1-0.9-1.5-1.7
	c-0.7-1.2-1-2.6-1-4.2c0-1.1,0.2-2.2,0.7-3.3c0.5-1.1,1.1-2.1,1.9-3.2c0.1-0.1,0.3-0.3,0.4-0.5s0.3-0.3,0.4-0.5
	c0.1-0.2,0.2-0.3,0.3-0.5s0.1-0.3,0.1-0.4c0-0.3-0.1-0.5-0.3-0.8c-0.2-0.2-0.5-0.4-0.9-0.5c-0.4-0.1-0.8-0.2-1.2-0.3
	c-0.4-0.1-0.8-0.2-1.2-0.3c-0.4-0.2-0.7-0.5-0.9-0.8C11.8,4,11.7,3.5,11.7,3c0-0.4,0.2-0.8,0.5-1.2l0.4,0.4l-0.3,0.5
	c0,0.7,0.5,1.1,1.5,1.2c1.4,0.1,2.3,0.3,2.7,0.5c0.4,0.3,0.8,0.6,1,1.2c0.2,0.5,0.4,1.2,0.4,2h1.1l1.2,1.3L19.6,8.8L19.6,8.8z"/>
</svg>
