<?xml version="1.0" encoding="utf-8" ?><svg xmlns="http://www.w3.org/2000/svg" xmlns:xlink="http://www.w3.org/1999/xlink" width="32" height="29"><g transform="translate(16 14.5) scale(1.2) translate(-16 -14.5)"><path d="m17.00 20.37q-0.84 -0.97 -1.69 -1.52q-0.84 -0.54 -1.67 -0.63l-0.19 -1.15q1.04 0.25 1.96 0.89q0.91 0.64 1.60 1.62l0 0.79Zm1.90 -10.45l0 10.58l-0.55 -0.66q-0.66 -1.36 -1.07 -1.88q-0.41 -0.51 -0.77 -0.85q-1.29 -1.18 -3.43 -1.40l-1.31 -1.87q3.02 -2.10 6.19 -3.16l0 -0.73l-6.71 0l-0.98 -1.00l9.59 0l0.97 1.00l-1.89 0Zm-0.97 2.37q-0.97 0.36 -1.97 0.86q-0.99 0.50 -2.09 1.24q2.71 1.13 4.06 3.45l0 -5.56Z"/></g></svg>